<svg xmlns="http://www.w3.org/2000/svg" width="24" height="24" viewBox="0 0 24 24">
  <path fill="#4F87C2" d="M16.3280733,8.61050743 C16.6310356,10.6515166 16.0091657,12.7881981 14.4146273,14.3508457 C12.0706558,16.6629264 8.45105359,16.9499433 5.78817444,15.2118965 L7.65378438,13.3941227 L0.797269206,12.4373996 L1.75399225,19.134461 L3.84283757,17.1253426 C7.60594823,19.8998394 12.9317065,19.6287679 16.3440187,16.2642918 C18.3212464,14.3030096 19.2301333,11.7198573 19.1185156,9.15265049 L16.3280733,8.61050743 L16.3280733,8.61050743 Z M4.7198337,4.78361524 C7.06380517,2.47153454 10.6834074,2.18451763 13.3462865,3.9225645 L11.4806766,5.74033829 L18.3371917,6.69706133 L17.3804687,0 L15.2916234,2.0091184 C11.5285127,-0.765378438 6.20275443,-0.494306908 2.77449684,2.87016914 C0.797269206,4.83145139 -0.0956723048,7.41460362 0.0159453841,9.98181046 L2.80638761,10.5398989 C2.50342531,8.49888974 3.12529529,6.34626288 4.7198337,4.78361524 L4.7198337,4.78361524 Z" transform="translate(2.792 2.792)"/>
</svg>
